<svg width="106" height="106" viewBox="0 0 106 106" fill="none" xmlns="http://www.w3.org/2000/svg">
<path fill-rule="evenodd" clip-rule="evenodd" d="M103.425 15.4936C101.833 17.0848 99.635 18.069 97.2069 18.069H67.7381C66.0974 18.069 64.6121 18.734 63.537 19.8092C62.4618 20.8843 61.7968 22.3696 61.7968 24.0103V45.6366V61.7969H45.6365H24.0102C22.3696 61.7969 20.8843 62.4619 19.8091 63.537C18.7339 64.6122 18.0689 66.0975 18.0689 67.7381V97.2069C18.0689 99.6351 17.0847 101.833 15.4935 103.425C13.9023 105.016 11.704 106 9.27583 106C6.84768 106 4.64941 105.016 3.05817 103.425C1.46693 101.833 0.482727 99.6351 0.482727 97.2069L0.482727 64.0545C0.482727 58.5748 2.70383 53.6138 6.29487 50.0228C9.88591 46.4318 14.8469 44.2107 20.3266 44.2107H44.2106V20.3267C44.2106 14.8469 46.4317 9.88597 50.0227 6.29493C53.6138 2.70389 58.5747 0.482788 64.0545 0.482788H97.2069C99.635 0.482788 101.833 1.46699 103.425 3.05823C105.016 4.64947 106 6.84774 106 9.27589C106 11.704 105.016 13.9023 103.425 15.4936Z" fill="white"/>
</svg>
